REM DIRINDEX 1\2,1\3,1\4
REM DIRNAME folder01,folder02,folder03,folder04
TITLE ""
FILE "Track02.mp3" MP3
  TRACK 01 AUDIO
    TITLE "0:"
    INDEX 01 00:00:00
  TRACK 02 AUDIO
    TITLE "4:cjc153_0032"
    INDEX 01 00:00:05
  TRACK 03 AUDIO
    TITLE "0:"
    INDEX 01 00:01:34
  TRACK 04 AUDIO
    TITLE "2:cjc153_0033"
    INDEX 01 00:02:26
  TRACK 05 AUDIO
    TITLE "0:"
    INDEX 01 00:03:37
  TRACK 06 AUDIO
    TITLE "3:cjc153_0034"
    INDEX 01 00:03:63
  TRACK 07 AUDIO
    TITLE "0:"
    INDEX 01 00:05:01
  TRACK 08 AUDIO
    TITLE "2:cjc153_0035"
    INDEX 01 00:05:38
  TRACK 09 AUDIO
    TITLE "0:"
    INDEX 01 00:06:61
  TRACK 10 AUDIO
    TITLE "3:cjc153_0036"
    INDEX 01 00:07:11
  TRACK 11 AUDIO
    TITLE "0:"
    INDEX 01 00:08:32
  TRACK 12 AUDIO
    TITLE "2:cjc153_0037"
    INDEX 01 00:08:72
  TRACK 13 AUDIO
    TITLE "0:"
    INDEX 01 00:09:71
  TRACK 14 AUDIO
    TITLE "3:cjc153_0038"
    INDEX 01 00:10:21
  TRACK 15 AUDIO
    TITLE "0:"
    INDEX 01 00:11:25
  TRACK 16 AUDIO
    TITLE "2:cjc153_0039"
    INDEX 01 00:11:62
  TRACK 17 AUDIO
    TITLE "0:"
    INDEX 01 00:12:71
  TRACK 18 AUDIO
    TITLE "3:cjc153_0040"
    INDEX 01 00:13:20
  TRACK 19 AUDIO
    TITLE "0:"
    INDEX 01 00:14:31
  TRACK 20 AUDIO
    TITLE "2:cjc153_0041"
    INDEX 01 00:14:68
  TRACK 21 AUDIO
    TITLE "0:"
    INDEX 01 00:16:22
  TRACK 22 AUDIO
    TITLE "3:cjc153_0042"
    INDEX 01 00:16:48
  TRACK 23 AUDIO
    TITLE "0:"
    INDEX 01 00:18:05
  TRACK 24 AUDIO
    TITLE "2:cjc153_0043"
    INDEX 01 00:18:42
  TRACK 25 AUDIO
    TITLE "0:"
    INDEX 01 00:19:65
  TRACK 26 AUDIO
    TITLE "3:cjc153_0044"
    INDEX 01 00:20:16
  TRACK 27 AUDIO
    TITLE "0:"
    INDEX 01 00:21:37
  TRACK 28 AUDIO
    TITLE "2:cjc153_0045"
    INDEX 01 00:21:72
  TRACK 29 AUDIO
    TITLE "0:"
    INDEX 01 00:23:26
  TRACK 30 AUDIO
    TITLE "3:cjc153_0046"
    INDEX 01 00:23:51
  TRACK 31 AUDIO
    TITLE "0:"
    INDEX 01 00:25:07
  TRACK 32 AUDIO
    TITLE "2:cjc153_0047"
    INDEX 01 00:25:43
  TRACK 33 AUDIO
    TITLE "0:"
    INDEX 01 00:26:40
  TRACK 34 AUDIO
    TITLE "3:cjc153_0048"
    INDEX 01 00:26:67
  TRACK 35 AUDIO
    TITLE "0:"
    INDEX 01 00:27:67
  TRACK 36 AUDIO
    TITLE "2:cjc153_0049"
    INDEX 01 00:28:33
  TRACK 37 AUDIO
    TITLE "0:"
    INDEX 01 00:29:40
  TRACK 38 AUDIO
    TITLE "3:cjc153_0050"
    INDEX 01 00:29:66
  TRACK 39 AUDIO
    TITLE "0:"
    INDEX 01 00:30:73
  TRACK 40 AUDIO
    TITLE "2:cjc153_0051"
    INDEX 01 00:31:37
  TRACK 41 AUDIO
    TITLE "0:"
    INDEX 01 00:32:37
  TRACK 42 AUDIO
    TITLE "3:cjc153_0052"
    INDEX 01 00:32:62
  TRACK 43 AUDIO
    TITLE "0:"
    INDEX 01 00:33:64
  TRACK 44 AUDIO
    TITLE "2:cjc153_0053"
    INDEX 01 00:34:28
  TRACK 45 AUDIO
    TITLE "0:"
    INDEX 01 00:35:29
  TRACK 46 AUDIO
    TITLE "3:cjc153_0054"
    INDEX 01 00:35:53
  TRACK 47 AUDIO
    TITLE "0:"
    INDEX 01 00:36:58
  TRACK 48 AUDIO
    TITLE "2:cjc153_0055"
    INDEX 01 00:37:20
  TRACK 49 AUDIO
    TITLE "0:"
    INDEX 01 00:38:22
  TRACK 50 AUDIO
    TITLE "3:cjc153_0056"
    INDEX 01 00:38:49
  TRACK 51 AUDIO
    TITLE "0:"
    INDEX 01 00:39:54
  TRACK 52 AUDIO
    TITLE "2:cjc153_0057"
    INDEX 01 00:40:19
  TRACK 53 AUDIO
    TITLE "0:"
    INDEX 01 00:41:26
  TRACK 54 AUDIO
    TITLE "3:cjc153_0058"
    INDEX 01 00:41:51
  TRACK 55 AUDIO
    TITLE "0:"
    INDEX 01 00:42:61
  TRACK 56 AUDIO
    TITLE "2:cjc153_0059"
    INDEX 01 00:43:25
  TRACK 57 AUDIO
    TITLE "0:"
    INDEX 01 00:44:38
  TRACK 58 AUDIO
    TITLE "3:cjc153_0060"
    INDEX 01 00:44:63
  TRACK 59 AUDIO
    TITLE "0:"
    INDEX 01 00:46:02
  TRACK 60 AUDIO
    TITLE "2:cjc153_0061"
    INDEX 01 00:46:41
  TRACK 61 AUDIO
    TITLE "0:"
    INDEX 01 00:47:52
  TRACK 62 AUDIO
    TITLE "3:cjc153_0062"
    INDEX 01 00:48:06
  TRACK 63 AUDIO
    TITLE "0:"
    INDEX 01 00:49:20
  TRACK 64 AUDIO
    TITLE "2:cjc153_0063"
    INDEX 01 00:49:57
  TRACK 65 AUDIO
    TITLE "0:"
    INDEX 01 00:50:58
  TRACK 66 AUDIO
    TITLE "3:cjc153_0064"
    INDEX 01 00:51:11
  TRACK 67 AUDIO
    TITLE "0:"
    INDEX 01 00:52:16
  TRACK 68 AUDIO
    TITLE "2:cjc153_0065"
    INDEX 01 00:52:55
  TRACK 69 AUDIO
    TITLE "0:"
    INDEX 01 00:53:74
  TRACK 70 AUDIO
    TITLE "3:cjc153_0066"
    INDEX 01 00:54:27
  TRACK 71 AUDIO
    TITLE "0:"
    INDEX 01 00:55:50
  TRACK 72 AUDIO
    TITLE "2:cjc153_0067"
    INDEX 01 00:56:12
  TRACK 73 AUDIO
    TITLE "0:"
    INDEX 01 00:57:25
  TRACK 74 AUDIO
    TITLE "3:cjc153_0068"
    INDEX 01 00:57:52
  TRACK 75 AUDIO
    TITLE "0:"
    INDEX 01 00:58:71
  TRACK 76 AUDIO
    TITLE "2:cjc153_0069"
    INDEX 01 00:59:36
  TRACK 77 AUDIO
    TITLE "0:"
    INDEX 01 01:00:43
  TRACK 78 AUDIO
    TITLE "3:cjc153_0070"
    INDEX 01 01:00:68
  TRACK 79 AUDIO
    TITLE "0:"
    INDEX 01 01:02:06
  TRACK 80 AUDIO
    TITLE "2:cjc153_0071"
    INDEX 01 01:02:44
  TRACK 81 AUDIO
    TITLE "0:"
    INDEX 01 01:03:43
  TRACK 82 AUDIO
    TITLE "3:cjc153_0072"
    INDEX 01 01:03:71
  TRACK 83 AUDIO
    TITLE "0:"
    INDEX 01 01:05:01
  TRACK 84 AUDIO
    TITLE "2:cjc153_0073"
    INDEX 01 01:05:36
  TRACK 85 AUDIO
    TITLE "0:"
    INDEX 01 01:06:28
  TRACK 86 AUDIO
    TITLE "3:cjc153_0074"
    INDEX 01 01:06:55
  TRACK 87 AUDIO
    TITLE "0:"
    INDEX 01 01:07:53
  TRACK 88 AUDIO
    TITLE "2:cjc153_0075"
    INDEX 01 01:08:15
  TRACK 89 AUDIO
    TITLE "0:"
    INDEX 01 01:09:16
  TRACK 90 AUDIO
    TITLE "3:cjc153_0076"
    INDEX 01 01:09:40
  TRACK 91 AUDIO
    TITLE "0:"
    INDEX 01 01:10:43
  TRACK 92 AUDIO
    TITLE "2:cjc153_0077"
    INDEX 01 01:11:07
  TRACK 93 AUDIO
    TITLE "0:"
    INDEX 01 01:12:07
  TRACK 94 AUDIO
    TITLE "3:cjc153_0078"
    INDEX 01 01:12:36
  TRACK 95 AUDIO
    TITLE "0:"
    INDEX 01 01:13:44
  TRACK 96 AUDIO
    TITLE "2:cjc153_0079"
    INDEX 01 01:14:06
  TRACK 97 AUDIO
    TITLE "0:"
    INDEX 01 01:14:74
  TRACK 98 AUDIO
    TITLE "3:cjc153_0080"
    INDEX 01 01:15:23
  TRACK 99 AUDIO
    TITLE "0:"
    INDEX 01 01:16:22
  TRACK 100 AUDIO
    TITLE "2:cjc153_0081"
    INDEX 01 01:16:61
  TRACK 101 AUDIO
    TITLE "0:"
    INDEX 01 01:17:55
  TRACK 102 AUDIO
    TITLE "3:cjc153_0082"
    INDEX 01 01:18:07
  TRACK 103 AUDIO
    TITLE "0:"
    INDEX 01 01:19:07
  TRACK 104 AUDIO
    TITLE "2:cjc153_0083"
    INDEX 01 01:19:44
  TRACK 105 AUDIO
    TITLE "0:"
    INDEX 01 01:20:59
  TRACK 106 AUDIO
    TITLE "3:cjc153_0084"
    INDEX 01 01:21:10
  TRACK 107 AUDIO
    TITLE "0:"
    INDEX 01 01:22:31
  TRACK 108 AUDIO
    TITLE "2:cjc153_0085"
    INDEX 01 01:22:66
  TRACK 109 AUDIO
    TITLE "0:"
    INDEX 01 01:24:02
  TRACK 110 AUDIO
    TITLE "3:cjc153_0086"
    INDEX 01 01:24:26
  TRACK 111 AUDIO
    TITLE "0:"
    INDEX 01 01:25:43
  TRACK 112 AUDIO
    TITLE "2:cjc153_0087"
    INDEX 01 01:26:05
  TRACK 113 AUDIO
    TITLE "0:"
    INDEX 01 01:27:04
  TRACK 114 AUDIO
    TITLE "3:cjc153_0088"
    INDEX 01 01:27:30
  TRACK 115 AUDIO
    TITLE "0:"
    INDEX 01 01:28:31
  TRACK 116 AUDIO
    TITLE "2:cjc153_0089"
    INDEX 01 01:28:71
  TRACK 117 AUDIO
    TITLE "0:"
    INDEX 01 01:29:62
  TRACK 118 AUDIO
    TITLE "3:cjc153_0090"
    INDEX 01 01:30:13
  TRACK 119 AUDIO
    TITLE "0:"
    INDEX 01 01:31:08
  TRACK 120 AUDIO
    TITLE "2:cjc153_0091"
    INDEX 01 01:31:45
  TRACK 121 AUDIO
    TITLE "0:"
    INDEX 01 01:32:49
  TRACK 122 AUDIO
    TITLE "3:cjc153_0092"
    INDEX 01 01:33:01
  TRACK 123 AUDIO
    TITLE "0:"
    INDEX 01 01:34:08
  TRACK 124 AUDIO
    TITLE "2:cjc153_0093"
    INDEX 01 01:34:46
  TRACK 125 AUDIO
    TITLE "0:"
    INDEX 01 01:35:43
  TRACK 126 AUDIO
    TITLE "3:cjc153_0094"
    INDEX 01 01:35:69
  TRACK 127 AUDIO
    TITLE "0:"
    INDEX 01 01:36:70
  TRACK 128 AUDIO
    TITLE "2:cjc153_0095"
    INDEX 01 01:37:32
  TRACK 129 AUDIO
    TITLE "0:"
    INDEX 01 01:38:28
  TRACK 130 AUDIO
    TITLE "3:cjc153_0096"
    INDEX 01 01:38:53
  TRACK 131 AUDIO
    TITLE "0:"
    INDEX 01 01:39:53
  TRACK 132 AUDIO
    TITLE "2:cjc153_0097"
    INDEX 01 01:40:13
  TRACK 133 AUDIO
    TITLE "0:"
    INDEX 01 01:41:16
  TRACK 134 AUDIO
    TITLE "3:cjc153_0098"
    INDEX 01 01:41:38
  TRACK 135 AUDIO
    TITLE "0:"
    INDEX 01 01:42:41
  TRACK 136 AUDIO
    TITLE "2:cjc153_0099"
    INDEX 01 01:43:03
  TRACK 137 AUDIO
    TITLE "0:"
    INDEX 01 01:44:24
  TRACK 138 AUDIO
    TITLE "3:cjc153_0100"
    INDEX 01 01:44:48
  TRACK 139 AUDIO
    TITLE "0:"
    INDEX 01 01:45:67
  TRACK 140 AUDIO
    TITLE "2:cjc153_0101"
    INDEX 01 01:46:31
  TRACK 141 AUDIO
    TITLE "0:"
    INDEX 01 01:47:42
  TRACK 142 AUDIO
    TITLE "3:cjc153_0102"
    INDEX 01 01:47:68
  TRACK 143 AUDIO
    TITLE "0:"
    INDEX 01 01:49:04
  TRACK 144 AUDIO
    TITLE "2:cjc153_0103"
    INDEX 01 01:49:43
  TRACK 145 AUDIO
    TITLE "0:"
    INDEX 01 01:50:54
  TRACK 146 AUDIO
    TITLE "3:cjc153_0104"
    INDEX 01 01:51:03
  TRACK 147 AUDIO
    TITLE "0:"
    INDEX 01 01:52:16
  TRACK 148 AUDIO
    TITLE "2:cjc153_0105"
    INDEX 01 01:52:55
  TRACK 149 AUDIO
    TITLE "0:"
    INDEX 01 01:53:55
  TRACK 150 AUDIO
    TITLE "3:cjc153_0106"
    INDEX 01 01:54:03
  TRACK 151 AUDIO
    TITLE "0:"
    INDEX 01 01:55:05
  TRACK 152 AUDIO
    TITLE "2:cjc153_0107"
    INDEX 01 01:55:44
  TRACK 153 AUDIO
    TITLE "0:"
    INDEX 01 01:56:55
  TRACK 154 AUDIO
    TITLE "3:cjc153_0108"
    INDEX 01 01:57:06
  TRACK 155 AUDIO
    TITLE "0:"
    INDEX 01 01:58:25
  TRACK 156 AUDIO
    TITLE "2:cjc153_0109"
    INDEX 01 01:58:64
  TRACK 157 AUDIO
    TITLE "0:"
    INDEX 01 01:59:53
  TRACK 158 AUDIO
    TITLE "3:cjc153_0110"
    INDEX 01 02:00:06
  TRACK 159 AUDIO
    TITLE "0:"
    INDEX 01 02:00:74
  TRACK 160 AUDIO
    TITLE "2:cjc153_0111"
    INDEX 01 02:01:37
  TRACK 161 AUDIO
    TITLE "0:"
    INDEX 01 02:02:44
  TRACK 162 AUDIO
    TITLE "3:cjc153_0112"
    INDEX 01 02:02:69
  TRACK 163 AUDIO
    TITLE "0:"
    INDEX 01 02:04:04
  TRACK 164 AUDIO
    TITLE "2:cjc153_0113"
    INDEX 01 02:04:41
  TRACK 165 AUDIO
    TITLE "0:"
    INDEX 01 02:05:36
  TRACK 166 AUDIO
    TITLE "3:cjc153_0114"
    INDEX 01 02:05:64
  TRACK 167 AUDIO
    TITLE "0:"
    INDEX 01 02:06:61
